nColumns=19
nRows=92
DataType=double
version=3
OpenSimVersion=4.1
endheader
time	ground_force_1_vx	ground_force_1_vy	ground_force_1_vz	ground_force_1_px	ground_force_1_py	ground_force_1_pz	ground_force_1_mx	ground_force_1_my	ground_force_1_mz	ground_force_2_vx	ground_force_2_vy	ground_force_2_vz	ground_force_2_px	ground_force_2_py	ground_force_2_pz	ground_force_2_mx	ground_force_2_my	ground_force_2_mz
35.765	-42.3906	744.326	52.4945	0.65736	0	-0.983427	732.575	72.4301	-344.931	-0.0100955	-0.00764678	-0.00804415	0	0	0	0	0	0
35.77	-41.0305	745.576	51.8598	0.657244	0	-0.980132	729.929	71.6068	-345.067	-0.000620456	-0.000468675	-0.000496777	0	0	0	0	0	0
35.775	-40.2545	745.772	46.8356	0.657137	0	-0.976965	728.452	68.437	-345.551	-3.80727e-05	-2.86766e-05	-3.06369e-05	0	0	0	0	0	0
35.78	-40.034	744.248	44.2625	0.65704	0	-0.973954	725.351	65.7184	-344.39	-2.33241e-06	-1.7515e-06	-1.88673e-06	0	0	0	0	0	0
35.785	-40.5554	744.931	47.8923	0.656954	0	-0.971116	722.343	66.528	-344.67	-1.42643e-07	-1.06777e-07	-1.1602e-07	0	0	0	0	0	0
35.79	-43.0296	739.989	43.9815	0.656878	0	-0.96846	718.704	68.5801	-343.141	-8.70786e-09	-6.49645e-09	-7.12341e-09	0	0	0	0	0	0
35.795	-40.9992	736.835	43.6771	0.656808	0	-0.965986	710.782	68.217	-341.247	-5.30568e-10	-3.94415e-10	-4.36659e-10	0	0	0	0	0	0
35.8	-40.4152	733.486	43.4756	0.656743	0	-0.963688	706.241	66.0509	-340.196	-3.22619e-11	-2.38916e-11	-2.67218e-11	0	0	0	0	0	0
35.805	-40.5678	729.747	41.0071	0.65668	0	-0.961553	703	63.3454	-338.052	-1.95749e-12	-1.44371e-12	-1.63236e-12	0	0	0	0	0	0
35.81	-37.662	727.282	46.5183	0.656618	0	-0.959564	696.993	63.2894	-336.617	-1.18497e-13	-8.70112e-14	-9.95303e-14	0	0	0	0	0	0
35.815	-38.3651	720.815	43.016	0.656557	0	-0.957697	691.09	63.7922	-334.781	-7.1554e-15	-5.22917e-15	-6.05664e-15	0	0	0	0	0	0
35.82	-34.873	716.811	41.996	0.656498	0	-0.955928	684.624	61.3259	-331.825	-4.30918e-16	-3.13286e-16	-3.67783e-16	0	0	0	0	0	0
35.825	-33.5208	710.821	45.4013	0.656444	0	-0.954231	677.209	59.6763	-330.177	-2.58755e-17	-1.87055e-17	-2.22829e-17	0	0	0	0	0	0
35.83	-34.9428	707.973	39.4589	0.656399	0	-0.952578	675.968	57.0439	-327.893	-1.54882e-18	-1.11266e-18	-1.3468e-18	0	0	0	0	0	0
35.835	-31.2524	703.643	43.1351	0.656366	0	-0.950941	668.456	55.9413	-325.542	-9.23826e-20	-6.59069e-20	-8.11893e-20	0	0	0	0	0	0
35.84	-33.4183	699.014	42.2795	0.656353	0	-0.949298	663.146	59.3147	-325.189	-5.48903e-21	-3.88559e-21	-4.88054e-21	0	0	0	0	0	0
35.845	-31.3005	695.998	38.4504	0.656363	0	-0.947629	661.433	56.5804	-322.198	-3.2473e-22	-2.27858e-22	-2.92481e-22	0	0	0	0	0	0
35.85	-28.638	690.578	43.5299	0.656401	0	-0.945919	651.905	53.3713	-320.887	-1.91176e-23	-1.32805e-23	-1.74687e-23	0	0	0	0	0	0
35.855	-31.2851	691.154	36.6293	0.65647	0	-0.944158	652.644	52.5633	-319.999	-1.11928e-24	-7.68571e-25	-1.03944e-24	0	0	0	0	0	0
35.86	-28.562	687.415	37.7146	0.65657	0	-0.94234	647.322	51.4183	-318.074	-6.51149e-26	-4.41091e-26	-6.15939e-26	0	0	0	0	0	0
35.865	-30.5123	684.829	40.4104	0.656698	0	-0.940463	643.826	54.7842	-318.722	-3.76014e-27	-2.50631e-27	-3.63287e-27	0	0	0	0	0	0
35.87	-31.0657	686.162	33.5487	0.65685	0	-0.938527	645.511	53.6334	-317.063	-2.1524e-28	-1.40683e-28	-2.13143e-28	0	0	0	0	0	0
35.875	-28.227	683.237	39.2249	0.657019	0	-0.936533	638.477	51.3468	-316.606	-1.21917e-29	-7.77702e-30	-1.24299e-29	0	0	0	0	0	0
35.88	-29.9644	683.252	36.5834	0.657198	0	-0.934485	639.409	50.7825	-316.135	-6.81681e-31	-4.21518e-31	-7.19821e-31	0	0	0	0	0	0
35.885	-29.9927	682.15	35.4721	0.657381	0	-0.932385	635.823	51.3569	-315.009	-3.74973e-32	-2.22481e-32	-4.13437e-32	0	0	0	0	0	0
35.89	-31.3117	679.542	38.3091	0.657564	0	-0.930235	631.258	55.0979	-315.179	-2.01909e-33	-1.13078e-33	-2.35139e-33	0	0	0	0	0	0
35.895	-33.2685	682.337	32.1946	0.657744	0	-0.928033	634.669	54.3251	-315.346	-1.05604e-34	-5.42282e-35	-1.32141e-34	0	0	0	0	0	0
35.9	-30.7297	684.245	36.3049	0.657923	0	-0.925776	632.212	51.8735	-315.947	-5.29541e-36	-2.34912e-36	-7.31562e-36	0	0	0	0	0	0
35.905	-31.554	683.547	35.863	0.658105	0	-0.923456	631.986	52.0576	-316.004	-2.48367e-37	-8.11092e-38	-3.9728e-37	0	0	0	0	0	0
35.91	-30.703	685.702	34.1298	0.658294	0	-0.921062	631.346	51.3522	-316.28	-1.03007e-38	-9.22803e-40	-2.10246e-38	0	0	0	0	0	0
35.915	-29.3984	687.052	35.9895	0.658498	0	-0.918581	630.26	52.0798	-317.621	-3.13974e-40	2.03734e-40	-1.07277e-39	0	0	0	0	0	0
35.92	-31.5282	688.668	31.2321	0.658722	0	-0.916	632.022	52.405	-317.867	1.2962e-42	2.98364e-41	-5.17897e-41	0	0	0	0	0	0
35.925	-29.5311	692.66	32.9267	0.658971	0	-0.913309	632.169	49.7247	-318.676	3.21094e-42	1.3103e-41	-2.61454e-42	0	0	0	0	0	0
35.93	-29.508	691.047	33.2817	0.659246	0	-0.910503	629.087	48.8211	-319.125	2.93558e-41	1.61674e-40	-5.94627e-42	0	0	0	0	0	0
35.935	-28.9087	694.328	30.3827	0.659549	0	-0.907581	630.332	48.6732	-319.57	4.65975e-40	2.54083e-39	-9.9215e-41	0	0	0	0	0	0
35.94	-26.1985	695.847	29.7175	0.659875	0	-0.904551	629.266	46.8313	-320.158	7.43085e-39	3.99404e-38	-1.67073e-39	0	0	0	0	0	0
35.945	-28.9412	697.053	27.9756	0.660218	0	-0.901426	628.684	47.5624	-321.162	1.18373e-37	6.27031e-37	-2.80241e-38	0	0	0	0	0	0
35.95	-29.016	700.566	26.1091	0.660574	0	-0.898229	629.782	46.25	-321.142	1.88362e-36	9.83074e-36	-4.68398e-37	0	0	0	0	0	0
35.955	-27.4817	700.483	25.8905	0.660934	0	-0.894981	625.801	44.741	-321.768	2.99403e-35	1.53916e-34	-7.80365e-36	0	0	0	0	0	0
35.96	-29.4459	702.221	22.8103	0.661294	0	-0.891708	626.586	45.9556	-322.483	4.7538e-34	2.40637e-33	-1.29628e-34	0	0	0	0	0	0
35.965	-27.8467	701.189	20.8986	0.661649	0	-0.888434	623.489	43.8116	-321.444	7.53951e-33	3.75661e-32	-2.14745e-33	0	0	0	0	0	0
35.97	-27.9131	703.43	22.2804	0.661998	0	-0.885182	621.612	43.398	-322.116	1.19442e-31	5.85543e-31	-3.5486e-32	0	0	0	0	0	0
35.975	-31.3568	703.182	17.9103	0.66234	0	-0.881968	620.692	44.3318	-321.799	1.89009e-30	9.11213e-30	-5.85028e-31	0	0	0	0	0	0
35.98	-30.6889	703.871	15.5388	0.662678	0	-0.878804	618.625	42.9937	-322.06	2.98748e-29	1.41562e-28	-9.62386e-30	0	0	0	0	0	0
35.985	-30.0908	706.141	15.0249	0.663016	0	-0.875701	617.944	43.0879	-322.675	4.71651e-28	2.19532e-27	-1.57992e-28	0	0	0	0	0	0
35.99	-31.8512	705.128	12.0477	0.663356	0	-0.872662	616.235	42.7951	-322.14	7.43738e-27	3.39807e-26	-2.5887e-27	0	0	0	0	0	0
35.995	-30.4161	707.962	11.8044	0.663701	0	-0.869692	614.924	40.5425	-323.113	1.17136e-25	5.2493e-25	-4.23388e-26	0	0	0	0	0	0
36	-30.2081	707.282	9.8355	0.664054	0	-0.866792	612.951	39.5452	-322.518	1.84256e-24	8.09189e-24	-6.91264e-25	0	0	0	0	0	0
36.005	-32.8649	709.391	5.83941	0.664413	0	-0.863962	613.702	39.8881	-323.584	2.89466e-23	1.24455e-22	-1.12677e-23	0	0	0	0	0	0
36.01	-32.7077	714.086	5.68071	0.664777	0	-0.861202	614.753	40.5891	-324.691	4.54154e-22	1.90951e-21	-1.83375e-22	0	0	0	0	0	0
36.015	-32.5954	711.141	5.16631	0.665139	0	-0.858507	610.416	40.1253	-323.935	7.11574e-21	2.92206e-20	-2.97984e-21	0	0	0	0	0	0
36.02	-32.8764	715.104	1.93518	0.665496	0	-0.85587	612.126	38.1732	-324.957	1.11334e-19	4.45882e-19	-4.8352e-20	0	0	0	0	0	0
36.025	-31.8612	717.965	-0.902887	0.665841	0	-0.853279	612.475	35.7277	-325.578	1.73943e-18	6.78272e-18	-7.8348e-19	0	0	0	0	0	0
36.03	-32.5824	716.198	-2.35327	0.666168	0	-0.850715	609.245	35.5831	-325.633	2.71349e-17	1.02827e-16	-1.26781e-17	0	0	0	0	0	0
36.035	-34.9197	721.472	-3.5761	0.666474	0	-0.848158	611.399	37.3079	-327.379	4.22633e-16	1.55303e-15	-2.04886e-16	0	0	0	0	0	0
36.04	-35.5579	724.451	-6.99515	0.666753	0	-0.845578	613.368	37.1657	-328.203	6.57177e-15	2.33578e-14	-3.30685e-15	0	0	0	0	0	0
36.045	-34.2121	724.568	-6.26013	0.667005	0	-0.842949	610.351	35.6206	-328.236	1.02011e-13	3.49655e-13	-5.33062e-14	0	0	0	0	0	0
36.05	-35.0388	725.676	-9.98708	0.667226	0	-0.840245	609.269	33.2515	-329.293	1.5806e-12	5.20636e-12	-8.5825e-13	0	0	0	0	0	0
36.055	-35.4619	731.125	-13.3492	0.667416	0	-0.837447	613.127	32.4927	-330.191	2.4443e-11	7.70505e-11	-1.38017e-11	0	0	0	0	0	0
36.06	-37.3896	734.651	-12.4486	0.667573	0	-0.834542	613.362	34.8054	-332.103	3.77222e-10	1.13225e-09	-2.2169e-10	0	0	0	0	0	0
36.065	-38.8184	730.487	-14.8862	0.667698	0	-0.83153	606.724	35.0171	-331.5	5.80884e-09	1.65001e-08	-3.5568e-09	0	0	0	0	0	0
36.07	-39.6441	738.273	-17.6782	0.66779	0	-0.828418	611.582	34.116	-333.849	8.9241e-08	2.3807e-07	-5.70008e-08	0	0	0	0	0	0
36.075	-41.2317	744.801	-23.4148	0.66785	0	-0.82522	616.396	31.5628	-336.123	1.36756e-06	3.39338e-06	-9.12463e-07	0	0	0	0	0	0
36.08	-41.2401	745.373	-23.6087	0.667879	0	-0.821957	611.083	30.6899	-337.383	2.08999e-05	4.7637e-05	-1.45904e-05	0	0	0	0	0	0
36.085	-40.8395	750.467	-25.6476	0.667877	0	-0.818648	612.946	30.6139	-339.779	0.00031846	0.00065571	-0.000233046	0	0	0	0	0	0
36.09	-42.2059	760.36	-29.8221	0.667846	0	-0.815308	621.579	30.8384	-343.027	0.00483682	0.00879003	-0.00371825	0	0	0	0	0	0
36.095	-41.9401	761.943	-28.1684	0.667787	0	-0.81195	617.794	29.6824	-344.949	0.976393	4.94038	-0.26655	0	0	0	5.82793	-1.29641	1.20711
36.1	-41.1219	764.999	-32.5968	0.667703	0	-0.808582	619.166	26.2743	-346.954	1.26132	4.80193	-0.585904	0	0	0	5.90973	-1.45481	1.39082
36.105	-40.0629	777.417	-34.4538	0.667596	0	-0.805205	626.127	25.3116	-350.75	-0.00634843	-0.0171403	0.0044343	0	0	0	0	0	0
36.11	-40.6878	779.88	-37.2818	0.667467	0	-0.801821	625.626	24.9326	-353.293	0.93057	4.24794	-0.386431	0	0	0	4.96282	-1.52815	0.964863
36.115	-38.8955	784.546	-39.8527	0.66732	0	-0.798429	626.7	22.5369	-355.737	0.105201	0.375008	-0.0599722	0	0	0	0.00171084	-0.0279879	0.0137644
36.12	-37.2785	793.122	-40.418	0.66716	0	-0.795025	629.673	20.8275	-358.591	2.74043	10.0152	-0.695366	0	0	0	12.0754	-3.98154	2.65764
36.125	-38.3015	796.096	-44.5789	0.66699	0	-0.791606	629.742	18.4549	-360.868	0.0477807	0.123938	-0.0177871	0	0	0	0	0	0
36.13	-37.288	801.749	-47.3516	0.666818	0	-0.788168	632.42	16.1011	-363.348	-0.125859	-0.425789	0.0184411	0	0	0	-0.792541	0.306831	-0.188803
36.135	-35.8538	805.882	-49.4126	0.66665	0	-0.784708	632.645	15.3433	-365.287	1.63318	5.53149	-0.246723	0	0	0	6.32313	-2.4479	1.50651
36.14	-37.5532	808.889	-52.1568	0.666494	0	-0.781224	631.022	15.0533	-367.366	3.82124	9.64497	-0.690739	0	0	0	11.4804	-5.27328	2.95665
36.145	-37.9649	812.898	-55.9083	0.666354	0	-0.777715	633.049	12.8489	-368.702	-0.0286547	-0.290912	0.0108231	0	0	0	-0.76939	0.304215	-0.195561
36.15	-36.6086	816.167	-58.491	0.666237	0	-0.774185	632.649	10.2059	-370.222	2.34796	5.87359	-0.466937	0	0	0	6.32085	-2.92476	1.81692
36.155	-36.0745	815.379	-61.1348	0.666145	0	-0.770638	627.106	8.13576	-370.472	3.68188	10.4176	-0.588271	0.308303	0	-0.899111	11.3413	-4.73335	3.22842
36.16	-38.5139	817.14	-64.9779	0.666077	0	-0.767083	626.992	8.22835	-371.291	0.163806	0.329466	-0.0193999	0.30668	0	-0.897074	0.102829	-0.0149606	-0.0411307
36.165	-38.8447	822.915	-67.1295	0.666032	0	-0.763529	629.416	7.70461	-372.628	3.44563	10.4107	-1.55768	0.3729	0	-1.12367	12.7728	-4.72889	3.2871
36.17	-38.1935	815.41	-68.5806	0.666006	0	-0.759986	618.762	5.59165	-370.732	3.52376	10.6509	-0.32805	0.280212	0	-0.905534	12.2302	-4.9088	2.88514
36.175	-40.2121	813.351	-72.4479	0.665996	0	-0.756464	613.638	4.33309	-370.494	-0.0364845	0.00649855	-0.0301438	0	0	0	-0.319323	0.147737	-0.133189
36.18	-41.4756	819.568	-78.8718	0.665994	0	-0.752969	620.158	2.83055	-370.445	2.49011	10.6564	-0.722305	0	0	0	12.8437	-3.41565	3.08725
36.185	-40.6907	810.088	-76.9312	0.665997	0	-0.749508	607.001	2.27133	-367.889	2.16983	11.0135	-1.02787	0	0	0	12.4367	-3.03269	3.21017
36.19	-41.8491	799.265	-78.3187	0.665999	0	-0.746082	593.71	2.14784	-364.729	0.985033	5.30843	-0.447803	0	0	0	6.62384	-1.27584	1.41423
36.195	-44.1062	803.117	-86.4318	0.665996	0	-0.74269	598.234	0.258022	-363.671	1.2434	5.40217	-0.306436	0	0	0	6.11745	-1.53458	1.67051
36.2	-43.4153	797.375	-87.7618	0.665985	0	-0.739328	589.96	-2.0726	-360.825	2.08311	10.9551	-0.383316	0	0	0	12.7355	-2.5257	2.97729
36.205	-42.9207	780.264	-86.3439	0.665964	0	-0.735987	571.932	-2.16126	-355.707	0.919243	5.72262	-0.665173	0	0	0	5.98669	-0.951897	1.62381
36.21	-45.4518	775.517	-89.1258	0.66593	0	-0.73266	567.809	-1.33655	-353.074	0.114897	0.475125	-0.0591272	0.176815	0	-0.447552	-0.0582727	-0.0735191	0.00656451
36.215	-44.1791	774.609	-94.7126	0.66588	0	-0.72934	567.466	-4.52431	-349.792	3.19992	11.1107	-0.546037	0.374041	0	-0.872762	11.7561	-4.45449	4.71008
36.22	-42.5153	756.746	-93.9918	0.66581	0	-0.726026	549.243	-6.77335	-344.297	2.64466	23.8668	-2.96896	0.475443	0	-1.07947	27.0152	-2.27298	9.62253
